<svg width="96" height="96" viewBox="0 0 96 96" xmlns="http://www.w3.org/2000/svg"><path d="M20.527 23.557a6.052 6.052 0 0 1 6.053-6.052h23.47a6.052 6.052 0 1 1 0 12.104H26.58a6.052 6.052 0 0 1-6.053-6.052ZM15.514 38.319a6.052 6.052 0 0 1 6.052-6.052h23.471a6.052 6.052 0 1 1 0 12.104H21.566a6.052 6.052 0 0 1-6.052-6.052ZM20.527 53.08a6.052 6.052 0 0 1 6.053-6.052h23.47a6.052 6.052 0 0 1 0 12.104H26.58a6.052 6.052 0 0 1-6.053-6.051Z"/><path d="M38.76 1.49c20.34 0 36.829 16.49 36.829 36.83a36.67 36.67 0 0 1-8.053 22.982L93.314 87.08l-.001.001.027.026c1.274 1.275.811 3.803-1.034 5.649-1.846 1.845-4.375 2.308-5.65 1.034l-.025-.027-.001.002-25.893-25.892a36.665 36.665 0 0 1-21.977 7.274c-20.34 0-36.828-16.488-36.828-36.828C1.932 17.98 18.42 1.49 38.76 1.49Zm0 7.485c-16.207 0-29.345 13.138-29.345 29.344 0 16.207 13.138 29.345 29.345 29.345 16.206 0 29.345-13.138 29.346-29.345 0-16.206-13.14-29.344-29.346-29.344Z"/></svg>
